# AST/ASF file generated using VICON BodyLanguage
# -----------------------------------------------
:version 1.10
:name VICON
:units
  mass 1.0
  length 0.45
  angle deg
:documentation
   .ast/.asf automatically generated from VICON data using
   VICON BodyBuilder and BodyLanguage model FoxedUp or BRILLIANT.MOD
:root
   order TX TY TZ RX RY RZ
   axis XYZ
   position 0 0 0  
   orientation 0 0 0 
:bonedata
  begin
     id 1 
     name lhipjoint
     direction 0.822369 -0.411937 0.392449 
     length 3.8167 
     axis 0 0 0  XYZ
  end
  begin
     id 2 
     name lfemur
     direction 0.34202 -0.939693 0  
     length 6.16791  
     axis 0 0 20  XYZ
    dof rx ry rz
    limits (-160.0 20.0)
           (-70.0 70.0)
           (-60.0 70.0)
  end
  begin
     id 3 
     name ltibia
     direction 0.34202 -0.939693 0   
     length 7.07101   
     axis 0 0 20   XYZ
    dof rx
    limits (-10.0 170.0)
  end
  begin
     id 4 
     name lfoot
     direction 0.028254 -0.0776273 0.996582   
     length 1.66799   
     axis -90 7.62852e-016 20   XYZ
    dof rx rz
    limits (-45.0 90.0)
           (-70.0 20.0)
  end
  begin
     id 5 
     name ltoes
     direction 1.53483e-011 -4.21688e-011 1   
     length 0.851674   
     axis -90 7.62852e-016 20   XYZ
    dof rx
    limits (-90.0 20.0)
  end
  begin
     id 6 
     name rhipjoint
     direction -0.822466 -0.411836 0.392353   
     length 3.81764  
     axis 0 0 0  XYZ 
  end
  begin
     id 7 
     name rfemur
     direction -0.34202 -0.939693 0   
     length 6.28636   
     axis 0 0 -20   XYZ
    dof rx ry rz
    limits (-160.0 20.0)
           (-70.0 70.0)
           (-70.0 60.0)
  end
  begin
     id 8 
     name rtibia
     direction -0.34202 -0.939693 0   
     length 6.85621   
     axis 0 0 -20   XYZ
    dof rx
    limits (-10.0 170.0)
 end
 begin
     id 9 
     name rfoot
     direction -0.0553036 -0.151945 0.98684   
     length 1.57293  
     axis -90 -7.62852e-016 -20   XYZ
    dof rx rz
    limits (-45.0 90.0)
           (-20.0 70.0)
  end
  begin
     id 10 
     name rtoes
     direction -1.53592e-011 -4.21964e-011 1   
     length 0.802812   
     axis -90 -7.62852e-016 -20   XYZ
    dof rx
    limits (-90.0 20.0)
  end
  begin
     id 11 
     name lowerback
     direction 0.00654913 0.996475 -0.0836396   
     length 1.97212   
     axis 0 0 0   XYZ
    dof rx ry rz
    limits (-20.0 45.0)
           (-30.0 30.0)
           (-30.0 30.0)
  end
  begin
     id 12 
     name upperback
     direction 0.0111875 0.994527 0.103877   
     length 1.89704   
     axis 0 0 0   XYZ
    dof rx ry rz
    limits (-20.0 45.0)
           (-30.0 30.0)
           (-30.0 30.0)
  end
  begin
     id 13 
     name thorax
     direction 0.00473652 0.989004 0.147814   
     length 1.94516   
     axis 0 0 0   XYZ
    dof rx ry rz
    limits (-20.0 45.0)
           (-30.0 30.0)
           (-30.0 30.0)
  end
  begin
     id 14 
     name lowerneck
     direction -0.00925808 0.999011 0.0434791   
     length 1.81771   
     axis 0 0 0   XYZ
    dof rx ry rz
    limits (-20.0 45.0)
           (-30.0 30.0)
           (-30.0 30.0)
  end
  begin
     id 15 
     name upperneck
     direction 0.00451595 0.964412 -0.264365   
     length 1.80434   
     axis 0 0 0   XYZ
    dof rx ry rz
    limits (-20.0 45.0)
           (-30.0 30.0)
           (-30.0 30.0)
  end
  begin
     id 16
     name head
     direction -0.00110849 0.995756 -0.0920241  
     length 1.84006  
     axis 0 0 0   XYZ
    dof rx ry rz
    limits (-20.0 45.0)
           (-30.0 30.0)
           (-30.0 30.0)
  end
  begin
     id 17 
     name lclavicle
     direction 0.921253 0.385213 0.0538957  
     length 3.67415  
     axis 0 0 0   XYZ
    dof ry rz
    limits (-20.0 10.0)
           (0.0 20.0)
  end
  begin
     id 18 
     name lhumerus
     direction 1 -4.48961e-011 6.73441e-028   
     length 4.32712   
     axis 180 -30 -90   XYZ
    dof rx ry rz
    limits (-60.0 90.0)
           (-90.0 90.0)
           (-90.0 90.0)
  end
  begin
     id 19
     name lradius
     direction 1 -4.48985e-011 -9.53507e-028   
     length 3.28587   
     axis 180 -30 -90   XYZ
    dof rx
    limits (-10.0 170.0)
  end
  begin
     id 20
     name lwrist
     direction 1 -4.48951e-011 -4.67472e-027   
     length 1.64293   
     axis 1.65735e-015 90 90   XYZ
    dof ry
    limits (-180.0 0.0)
 end
  begin
     id 21 
     name lhand
     direction 1 -4.48946e-011 -9.34945e-027   
     length 0.433158   
     axis 5.96574e-015 90 90   XYZ
    dof rx rz
    limits (-90.0 90.0)
           (-45.0 45.0)
  end
  begin
     id 22 
     name lfingers
     direction 1 -4.48882e-011 -1.86989e-026   
     length 0.349224   
     axis 1.19315e-014 90 90   XYZ
    dof rx
    limits (0.0 90.0)
  end
  begin
     id 23
     name lthumb
     direction 0.707107 -6.3493e-011 0.707107   
     length 0.501417   
     axis -90 45 2.85299e-015   XYZ
    dof rx rz
    limits (-45.0 45.0)
           (-45.0 45.0)
  end
  begin
     id 24 
     name rclavicle
     direction -0.884378 0.46502 -0.0403866   
     length 3.50218  
     axis 0 0 0   XYZ 
    dof ry rz
    limits (-10.0 20.0)
           (-20.0 0.0)
  end
  begin
     id 25 
     name rhumerus
     direction -1 -4.48964e-011 1.58188e-027  
     length 4.29104   
     axis 180 30 90   XYZ
    dof rx ry rz
    limits (-90.0 60.0)
           (-90.0 90.0)
           (-90.0 90.0)
  end
  begin
     id 26 
     name rradius
     direction -1 -4.48978e-011 -1.9722e-027   
     length 3.2272   
     axis 180 30 90   XYZ
    dof rx
    limits (-10.0 170.0)
  end
  begin
     id 27 
     name rwrist
     direction -1 -4.48969e-011 -4.67472e-027   
     length 1.6136   
     axis 1.65735e-015 -90 -90   XYZ
    dof ry
    limits (-180.0 0.0)
  end
  begin
     id 28
     name rhand
     direction -1 -4.48846e-011 -9.34945e-027   
     length 0.543623   
     axis 5.96574e-015 -90 -90   XYZ
    dof rx rz
    limits (-90.0 90.0)
           (-45.0 45.0)
  end
  begin
     id 29
     name rfingers
     direction -1 -4.49074e-011 -1.86989e-026   
     length 0.438283   
     axis 1.19315e-014 -90 -90   XYZ
    dof rx
    limits (0.0 90.0)
  end
  begin
     id 30
     name rthumb
     direction -0.707107 -6.34834e-011 0.707107   
     length 0.629289   
     axis -90 -45 -2.85299e-015   XYZ
    dof rx rz
    limits (-45.0 45.0)
           (-45.0 45.0)
  end
:hierarchy
  begin
    root lhipjoint rhipjoint lowerback
    lhipjoint lfemur
    lfemur ltibia
    ltibia lfoot
    lfoot ltoes
    rhipjoint rfemur
    rfemur rtibia
    rtibia rfoot
    rfoot rtoes
    lowerback upperback
    upperback thorax
    thorax lowerneck lclavicle rclavicle
    lowerneck upperneck
    upperneck head
    lclavicle lhumerus
    lhumerus lradius
    lradius lwrist
    lwrist lhand lthumb
    lhand lfingers
    rclavicle rhumerus
    rhumerus rradius
    rradius rwrist
    rwrist rhand rthumb
    rhand rfingers
  end

#!OML:ASF H:\GeneralSubjects\Female5\Project 1\Capture day 1\Session 1\Female5.ASF
:FULLY-SPECIFIED
:DEGREES
28
root -36.1463 16.3019 2.1867 -168.549 1.06261 -176.201
lowerback 7.01182 -1.24671 -3.23702
upperback -10.2883 -0.354249 5.69473
thorax -15.3987 1.13049 8.25881
lowerneck -15.7769 -0.360143 -1.7892
upperneck 28.244 3.75977 -6.37896
head 12.0381 1.3603 -1.37788
rclavicle -1.19271e-014 5.56597e-015
rhumerus -49.7538 31.0091 -89.3397
rradius 31.0963
rwrist -13.4651
rhand -24.8527 -24.1673
rfingers 7.12502
rthumb 1.65382 -54.1406
lclavicle -1.19271e-014 5.56597e-015
lhumerus -51.9307 3.08331 82.712
lradius 35.3753
lwrist 1.01232
lhand -20.2475 26.2244
lfingers 7.12502
lthumb 6.10086 56.1166
rfemur 4.15265 34.6791 35.4454
rtibia -9.84401
rfoot -42.1495 -30.1379
rtoes 28.0267
lfemur -2.46182 -40.4014 -24.2476
ltibia -2.78709
lfoot -37.7741 2.68188
ltoes -16.4125
29
root -36.1499 16.3013 2.18856 -168.563 1.06657 -176.134
lowerback 7.02263 -1.24518 -3.19154
upperback -10.2729 -0.344455 5.71098
thorax -15.3885 1.12996 8.24905
lowerneck -15.7608 -0.358945 -1.69125
upperneck 28.2071 3.76212 -6.48985
head 12.0242 1.35879 -1.43573
rclavicle 4.87022e-015 9.54166e-015
rhumerus -49.7524 31.0147 -89.2749
rradius 31.1351
rwrist -13.55
rhand -24.9415 -24.1962
rfingers 7.12502
rthumb 1.56803 -54.1702
lclavicle 4.87022e-015 9.54166e-015
lhumerus -51.8965 3.22799 82.5386
lradius 35.3006
lwrist 0.636539
lhand -20.0396 26.2888
lfingers 7.12502
lthumb 6.30161 56.1751
rfemur 4.14032 34.6894 35.506
rtibia -9.80914
rfoot -42.1702 -30.0815
rtoes 28.1215
lfemur -2.43624 -40.364 -24.19
ltibia -2.81865
lfoot -37.761 2.3891
ltoes -16.0645
30
root -36.1536 16.3006 2.19059 -168.564 1.07517 -176.055
lowerback 7.01983 -1.24275 -3.14223
upperback -10.2592 -0.330235 5.7339
thorax -15.3726 1.1321 8.24333
lowerneck -15.7613 -0.365344 -1.6324
upperneck 28.1842 3.75059 -6.55301
head 12.0171 1.3516 -1.47124
rclavicle 1.88845e-015 -2.14687e-014
rhumerus -49.7454 30.9975 -89.204
rradius 31.1637
rwrist -13.6142
rhand -25.035 -24.1772
rfingers 7.12502
rthumb 1.47775 -54.1518
lclavicle 1.88845e-015 -2.14687e-014
lhumerus -51.7739 3.54933 82.2515
lradius 35.0611
lwrist 0.0387236
lhand -20.0694 26.3767
lfingers 7.12502
lthumb 6.27282 56.2639
rfemur 4.10921 34.7055 35.5534
rtibia -9.79247
rfoot -42.1428 -30.0762
rtoes 28.1197
lfemur -2.45554 -40.1822 -24.1085
ltibia -2.88576
lfoot -37.6403 1.36283
ltoes -14.8773
31
root -36.157 16.3 2.19299 -168.547 1.08979 -175.959
lowerback 7.00103 -1.23896 -3.08846
upperback -10.25 -0.309569 5.76588
thorax -15.3531 1.13858 8.24367
lowerneck -15.7893 -0.380111 -1.61954
upperneck 28.1942 3.72711 -6.55923
head 12.0262 1.3399 -1.47958
rclavicle -3.07122e-014 6.91771e-014
rhumerus -49.7315 30.9632 -89.1262
rradius 31.1712
rwrist -13.6597
rhand -25.1265 -24.1452
rfingers 7.12502
rthumb 1.3894 -54.1204
lclavicle -3.07122e-014 6.91771e-014
lhumerus -51.6281 3.9129 81.9646
lradius 34.7742
lwrist -0.510676
lhand -20.2404 26.4282
lfingers 7.12502
lthumb 6.10772 56.3202
rfemur 4.04579 34.7343 35.5979
rtibia -9.77362
rfoot -42.0793 -30.1164
rtoes 28.0177
lfemur -2.51311 -39.9664 -23.9875
ltibia -2.95567
lfoot -37.4882 0.108618
ltoes -13.5988
32
root -36.1602 16.2996 2.19585 -168.512 1.11147 -175.853
lowerback 6.96923 -1.23337 -3.03356
upperback -10.2463 -0.282574 5.80578
thorax -15.3334 1.14978 8.25094
lowerneck -15.839 -0.395803 -1.60845
upperneck 28.2309 3.71133 -6.57202
head 12.051 1.3306 -1.48906
rclavicle -6.65929e-015 -3.97569e-015
rhumerus -49.7133 30.9249 -89.0453
rradius 31.1574
rwrist -13.6958
rhand -25.199 -24.1192
rfingers 7.12502
rthumb 1.31933 -54.0949
lclavicle -6.65929e-015 -3.97569e-015
lhumerus -51.4427 4.35213 81.6633
lradius 34.402
lwrist -1.01133
lhand -20.649 26.4477
lfingers 7.12502
lthumb 5.71323 56.3507
rfemur 3.94891 34.7749 35.6293
rtibia -9.75181
rfoot -42.0044 -30.1746
rtoes 27.8699
lfemur -2.59667 -39.8361 -23.827
ltibia -3.00565
lfoot -37.422 -0.820386
ltoes -12.8011
33
root -36.1632 16.2994 2.1991 -168.467 1.13918 -175.745
lowerback 6.9335 -1.22599 -2.98398
upperback -10.2457 -0.252294 5.84902
thorax -15.3157 1.16413 8.26455
lowerneck -15.9079 -0.41024 -1.59602
upperneck 28.2916 3.70143 -6.58275
head 12.0894 1.32407 -1.49729
rclavicle -1.10325e-014 3.10104e-014
rhumerus -49.7034 30.8923 -88.9651
rradius 31.1323
rwrist -13.717
rhand -25.2349 -24.0967
rfingers 7.12502
rthumb 1.28467 -54.0726
lclavicle -1.10325e-014 3.10104e-014
lhumerus -51.3883 4.49781 81.5991
lradius 34.3039
lwrist -1.03136
lhand -20.7952 26.4363
lfingers 7.12502
lthumb 5.57208 56.343
rfemur 3.8305 34.8246 35.6534
rtibia -9.71156
rfoot -41.9484 -30.2162
rtoes 27.7382
lfemur -2.69921 -39.6539 -23.6518
ltibia -3.07469
lfoot -37.2866 -1.96198
ltoes -11.8594
34
root -36.1662 16.2992 2.20257 -168.426 1.16829 -175.643
lowerback 6.90454 -1.21781 -2.93833
upperback -10.2456 -0.222392 5.88917
thorax -15.303 1.17857 8.27731
lowerneck -15.9816 -0.421549 -1.57319
upperneck 28.3596 3.69248 -6.5891
head 12.1317 1.3194 -1.50563
rclavicle -2.33572e-014 5.1684e-014
rhumerus -49.6978 30.8632 -88.8909
rradius 31.0965
rwrist -13.7117
rhand -25.2054 -24.0596
rfingers 7.12502
rthumb 1.31315 -54.0353
lclavicle -2.33572e-014 5.1684e-014
lhumerus -51.3685 4.51912 81.6472
lradius 34.2906
lwrist -0.783425
lhand -20.6215 26.2654
lfingers 7.12502
lthumb 5.73976 56.1676
rfemur 3.71415 34.8772 35.6853
rtibia -9.65359
rfoot -41.9116 -30.2464
rtoes 27.6395
lfemur -2.7431 -39.6783 -23.4757
ltibia -3.14861
lfoot -37.4089 -1.59998
ltoes -12.1435
